<?xml version="1.0" standalone="no"?>
<!DOCTYPE svg PUBLIC "-//W3C//DTD SVG 20010904//EN"
 "http://www.w3.org/TR/2001/REC-SVG-20010904/DTD/svg10.dtd">
<svg version="1.0" xmlns="http://www.w3.org/2000/svg"
   viewBox="0 0 284.000000 196.000000"
 preserveAspectRatio="xMidYMid meet">
<metadata>
Created by potrace 1.16, written by Peter Selinger 2001-2019
</metadata>
<g transform="translate(0.000000,196.000000) scale(0.100000,-0.100000)"
fill="#000000" stroke="none">
<path d="M1833 1940 l5 -20 -9 6 -9 5 0 -38 0 -38 6 -23 7 -23 16 3 16 3 -3
45 -3 45 10 28 11 27 -26 0 -26 0 5 -20z"/>
<path d="M2729 1950 l-45 -8 -63 -6 -63 -6 -122 -6 -121 -6 -4 -4 -4 -4 31 0
32 0 0 -11 0 -11 63 6 62 6 110 5 110 6 -16 -10 -15 -10 -105 -10 -104 -10
-155 -6 -155 -6 -64 -5 -65 -5 -10 -8 -11 -8 -65 -21 -65 -20 -67 -13 -67 -12
5 -9 5 -8 -15 6 -14 5 -104 -15 -103 -15 -105 -11 -105 -10 -50 -5 -50 -5 -98
-7 -97 -6 -6 -8 -5 -9 43 -1 43 -1 -35 -8 -35 -7 -15 -4 -15 -4 1 18 2 17 -22
0 -22 0 -20 15 -19 14 -16 1 -17 0 -23 -19 -23 -19 11 -25 12 -26 -16 6 -16 6
6 -17 7 -17 -10 6 -10 6 0 -19 0 -20 -20 -23 -19 -24 -1 31 0 31 -18 16 -19
17 -21 0 -22 0 0 15 0 15 38 0 38 0 12 -12 12 -12 5 6 5 5 -5 15 -6 14 -28 17
-29 17 -31 0 -31 0 -20 -20 -21 -21 5 -7 4 -7 -46 4 -46 3 -231 -17 -230 -18
-13 -10 -12 -9 0 -17 0 -18 23 -22 24 -22 14 5 14 5 98 11 97 10 80 16 81 16
6 -6 7 -6 -38 -39 -38 -39 7 -14 8 -13 -8 7 -7 7 -24 -35 -24 -35 6 -11 7 -11
-10 6 -10 6 -32 -33 -31 -32 7 -9 8 -8 -11 6 -11 6 -22 -22 -21 -23 -15 -52
-16 -52 7 -13 7 -12 -8 8 -9 7 -13 -31 -13 -31 7 -11 6 -10 -11 7 -11 6 -6
-20 -6 -20 7 -11 7 -12 -10 6 -10 6 -27 -55 -27 -55 7 -11 7 -11 -11 7 -10 6
-23 -57 -22 -58 -1 -97 -1 -96 -4 4 -4 4 -19 -56 -19 -55 7 -11 7 -11 -13 8
-13 8 5 -21 6 -22 -9 5 -8 6 -6 -24 -6 -24 3 -44 3 -44 18 50 19 50 19 42 18
42 16 66 15 66 0 43 0 43 10 54 10 54 60 125 59 125 22 80 21 80 9 11 9 11 -6
6 -6 6 22 -6 22 -6 6 -16 6 -16 10 -7 11 -8 -12 0 -13 0 0 -11 0 -11 -27 -32
-26 -31 -24 -54 -24 -53 6 -6 5 -5 3 4 3 4 32 58 32 57 34 45 34 44 12 34 11
35 37 26 37 25 13 21 12 20 19 0 19 0 12 15 12 15 13 0 13 0 36 50 36 50 9 0
9 0 16 -6 16 -6 0 -33 0 -33 -26 -17 -26 -16 6 -15 5 -14 -10 0 -10 0 2 -90 1
-90 8 0 8 0 6 16 6 16 0 18 0 18 33 8 32 8 12 2 13 2 34 36 34 37 6 23 5 22
26 14 26 14 9 -14 10 -15 0 -21 0 -21 -21 -27 -20 -26 -2 -34 -2 -34 -10 1
-10 2 0 -42 0 -41 -7 5 -8 4 0 -16 0 -16 8 5 8 5 -4 -31 -5 -31 12 7 11 7 0
14 0 13 14 5 15 6 -6 -14 -5 -15 17 -6 18 -7 16 20 16 21 23 7 22 6 0 23 0 23
21 19 21 18 19 -24 19 -25 0 -26 0 -27 -16 -13 -15 -13 5 -19 5 -19 -6 5 -5 6
-18 -17 -18 -17 -12 -46 -11 -45 3 -40 3 -39 20 0 20 0 14 13 13 13 5 -5 5 -4
2 -26 3 -25 -10 6 -10 6 5 -13 4 -14 11 -3 11 -4 7 21 7 22 29 -6 29 -5 10 19
11 20 8 0 8 0 11 -26 12 -25 -9 5 -9 6 -5 -14 -5 -13 -29 -7 -28 -7 -42 -16
-43 -16 7 -10 6 -10 -11 7 -12 7 -20 -11 -21 -11 6 -10 6 -9 -8 2 -8 3 -24
-17 -23 -16 7 -13 8 -12 -9 6 -10 6 -42 -40 -43 -39 7 -13 7 -12 -8 7 -8 8
-58 -57 -58 -57 6 -9 6 -10 -10 6 -10 6 -36 -30 -37 -31 6 -10 7 -11 -10 6
-11 7 -12 -15 -12 -14 8 -12 7 -12 -10 6 -10 6 -23 -24 -22 -24 7 -12 8 -12
-10 6 -11 7 -6 -16 -6 -16 7 -10 6 -11 -10 6 -11 7 -21 -58 -21 -57 -15 -79
-16 -79 10 -10 10 -10 15 6 16 6 0 33 0 33 15 70 15 70 25 48 25 49 -7 10 -6
11 10 -6 9 -6 39 49 39 49 50 43 51 43 56 55 55 55 54 62 53 63 38 17 38 16
-6 10 -6 10 11 -7 11 -7 54 16 55 16 17 19 17 19 25 83 24 83 -5 49 -5 50 -18
43 -18 43 -7 0 -6 0 -32 -26 -31 -27 2 -46 2 -46 -6 -15 -5 -15 -8 -30 -7 -30
2 -8 1 -8 -11 6 -11 7 -39 -17 -39 -18 -15 13 -15 12 0 8 0 7 28 44 28 44 52
87 52 87 0 25 0 25 -19 79 -19 79 -16 31 -16 31 -22 21 -22 20 -22 0 -22 0 4
-17 4 -18 3 -72 2 -71 -10 1 -10 2 0 -37 0 -36 -4 4 -4 3 -27 -43 -28 -43 -31
-22 -31 -22 -6 15 -6 16 52 92 52 93 9 105 9 105 -2 20 -3 20 55 7 55 7 175
16 175 17 113 19 114 19 10 0 9 0 -7 12 -7 11 11 -7 11 -6 40 6 41 6 -5 8 -5
8 22 -6 21 -5 -7 12 -8 12 39 -17 38 -17 17 -1 17 0 -5 -7 -4 -7 37 -13 37
-12 59 1 59 1 32 6 31 6 120 30 120 30 77 -2 77 -2 -4 -7 -5 -8 18 -23 18 -24
44 -72 44 -72 9 6 10 6 -7 -12 -8 -12 6 -25 7 -25 7 5 7 4 3 -36 2 -36 8 -6 7
-5 0 -50 0 -50 20 0 20 0 3 58 3 58 -16 54 -15 55 -32 57 -31 58 -46 70 -46
69 -35 7 -35 8 -55 -4 -55 -3 -161 -36 -161 -36 -54 1 -54 0 -35 12 -35 12 2
9 2 9 57 18 57 18 10 10 11 11 85 0 86 0 110 10 110 10 100 4 100 3 75 14 75
13 7 11 8 10 0 6 0 6 -82 -3 -83 -3 40 9 40 9 40 1 40 0 15 10 15 10 -35 -1
-35 -1 -46 -8z m-156 -37 l-13 -5 -17 5 -18 5 30 0 30 0 -12 -5z m-156 -9 l-6
-6 -13 5 -13 5 19 1 19 1 -6 -6z m-1464 -245 l22 -12 6 -10 7 -9 -20 -20 -19
-19 -9 6 -10 6 0 -15 0 -16 -9 0 -9 0 -13 17 -14 17 10 -6 10 -6 25 14 25 13
-21 1 -22 0 -12 15 -12 14 7 11 6 10 15 0 15 0 22 -11z m-73 -19 l0 -10 -4 0
-5 0 -6 10 -6 10 10 0 11 0 0 -10z m-246 -8 l5 -8 -10 -40 -10 -39 -1 -11 -1
-11 -20 5 -19 5 12 -23 12 -22 -10 6 -9 6 -18 -20 -17 -19 8 -12 7 -12 -11 7
-11 6 -6 -10 -7 -11 -50 -40 -51 -40 -5 5 -5 5 80 88 80 88 7 28 6 27 10 0 10
0 0 8 0 8 -67 -4 -68 -4 -161 -22 -161 -22 -12 4 -11 4 0 17 0 18 148 12 147
13 90 7 90 8 12 2 12 1 5 -8z m107 -55 l-9 -9 -11 6 -10 7 6 15 5 15 15 -12
14 -12 -10 -10z m-621 -18 l0 -11 -15 12 -15 12 0 15 0 14 15 -15 15 -15 0
-12z m431 -12 l-11 -27 -20 0 -20 0 0 9 0 8 21 27 22 27 9 -9 9 -9 -10 -26z
m299 33 l0 -10 -10 0 -10 0 0 10 0 10 10 0 10 0 0 -10z m-85 -20 l6 -10 -10 0
-11 0 0 10 0 10 4 0 5 0 6 -10z m81 -45 l6 -25 -26 -50 -27 -51 7 -11 7 -11
-10 6 -10 6 -28 -29 -29 -30 -8 0 -8 0 0 19 0 18 27 49 26 49 16 30 17 30 7
13 8 12 9 0 10 0 6 -25z m127 -12 l17 -16 0 -19 0 -18 -3 0 -3 0 -39 20 -39
20 -13 0 -13 0 0 8 0 8 12 12 13 13 25 -6 25 -7 18 -15z m144 -160 l-7 -6 29
-22 30 -21 -9 -14 -8 -13 -35 16 -35 17 -17 0 -16 0 3 17 3 18 30 6 30 7 4 1
4 1 -6 -7z m-720 -48 l-6 -15 -11 0 -11 0 11 21 12 21 5 -6 5 -5 -5 -16z m880
-222 l-7 -6 12 -14 11 -14 -10 -10 -11 -11 -21 14 -21 13 0 12 0 12 23 4 22 4
4 2 4 1 -6 -7z"/>
<path d="M2030 1907 l0 -10 125 5 125 6 0 -9 0 -9 -127 0 -126 0 7 -7 7 -7
129 2 130 2 22 10 23 9 -27 0 -28 1 0 10 0 9 -130 -1 -130 -1 0 -10z"/>
<path d="M539 1269 l-29 -31 0 -21 0 -20 4 4 4 4 36 48 36 47 -11 0 -11 0 -29
-31z"/>
<path d="M600 1239 l0 -31 -22 -40 -22 -39 12 -8 12 -7 -30 -43 -31 -42 3 -11
4 -11 32 40 31 40 11 27 10 27 6 58 6 59 -11 7 -11 6 0 -32z"/>
<path d="M736 1149 l-26 -20 0 -15 0 -14 5 0 4 0 26 26 25 25 10 -6 10 -6 0
-20 0 -20 -16 -31 -16 -31 11 -7 12 -7 -21 -26 -21 -26 -27 -13 -26 -13 -33
-43 -32 -43 -11 -40 -11 -40 4 -12 5 -12 7 20 7 20 19 45 20 45 30 33 29 32
13 0 14 0 18 20 17 19 14 67 14 67 -15 24 -15 23 -9 0 -8 0 -27 -21z"/>
<path d="M916 979 l-26 -20 0 -20 0 -20 35 37 35 37 0 3 0 4 -9 0 -8 0 -27
-21z"/>
<path d="M960 934 l0 -16 -32 -44 -31 -44 -9 0 -8 0 0 -15 0 -15 8 0 8 0 36
48 35 47 7 28 6 27 -10 0 -10 0 0 -16z"/>
<path d="M435 416 l20 -16 48 -47 47 -48 0 13 0 13 -42 44 -43 43 -25 7 -25 6
20 -15z"/>
<path d="M340 343 l0 -8 60 -17 59 -18 16 0 15 0 0 13 0 14 -25 11 -26 12 -5
0 -5 0 6 -9 5 -10 -32 10 -33 9 -17 0 -18 0 0 -7z"/>
</g>
</svg>
